<mxfile host="app.diagrams.net" modified="2023-11-08T06:17:50.528Z" agent="Mozilla/5.0 (Windows NT 10.0; Win64; x64) AppleWebKit/537.36 (KHTML, like Gecko) Chrome/120.0.0.0 Safari/537.36 Edg/120.0.0.0" version="22.0.8" etag="PHaNeZCEzgeMRbUIl4Hd" type="github">
  <diagram name="第 1 页" id="_9PtlgdQNvuXQH1_DjJs">
    <mxGraphModel>
      <root>
        <mxCell id="0" />
        <mxCell id="1" parent="0" />
      </root>
    </mxGraphModel>
  </diagram>
</mxfile>
